<svg width="52" height="52" viewBox="0 0 52 52" fill="none" xmlns="http://www.w3.org/2000/svg">
<path d="M2 26.2376L11.9802 16.2574L21.0099 26.2376H26V20.5347L16.7327 11.9802L26 2L35.7426 11.9802L26 20.5347V26.2376H30.9901L40.0198 16.2574L50 26.2376L40.0198 35.7426L30.9901 26.2376H26V31.4653L36.2178 40.495L26 50L16.7327 40.495L26 31.4653V26.2376H21.0099L11.9802 35.7426L2 26.2376Z" fill="#EC018B"/>
<path d="M21.0099 26.2376L11.9802 16.2574L2 26.2376L11.9802 35.7426L21.0099 26.2376ZM21.0099 26.2376H26M30.9901 26.2376L40.0198 16.2574L50 26.2376L40.0198 35.7426L30.9901 26.2376ZM30.9901 26.2376H26M26 26.2376V20.5347M26 26.2376V31.4653M26 20.5347L16.7327 11.9802L26 2L35.7426 11.9802L26 20.5347ZM26 31.4653L16.7327 40.4951L26 50L36.2178 40.4951L26 31.4653Z" stroke="#061383" stroke-width="2"/>
<path d="M25.7714 33L18 40.7576L26.2571 49L35 40.7576L25.7714 33Z" fill="#00A885" stroke="black"/>
</svg>
