<svg width="36" height="36" viewBox="0 0 36 36" fill="none" xmlns="http://www.w3.org/2000/svg">
<path d="M2 17.9796L8.57983 11.3998L14.533 17.9796H17.8229V14.2197L11.7131 8.57983L17.8229 2L24.2461 8.57983L17.8229 14.2197V17.9796H21.1128L27.066 11.3998L33.6458 17.9796L27.066 24.2461L21.1128 17.9796H17.8229V21.4262L24.5594 27.3793L17.8229 33.6458L11.7131 27.3793L17.8229 21.4262V17.9796H14.533L8.57983 24.2461L2 17.9796Z" fill="#EC018B"/>
<path d="M14.533 17.9796L8.57983 11.3998L2 17.9796L8.57983 24.2461L14.533 17.9796ZM14.533 17.9796H17.8229M21.1128 17.9796L27.066 11.3998L33.6458 17.9796L27.066 24.2461L21.1128 17.9796ZM21.1128 17.9796H17.8229M17.8229 17.9796V14.2197M17.8229 17.9796V21.4262M17.8229 14.2197L11.7131 8.57983L17.8229 2L24.2461 8.57983L17.8229 14.2197ZM17.8229 21.4262L11.7131 27.3793L17.8229 33.6458L24.5594 27.3793L17.8229 21.4262Z" stroke="#061383" stroke-width="2"/>
<path d="M17.6722 22.4379L12.5486 27.5524L17.9925 32.9865L23.7565 27.5524L17.6722 22.4379Z" fill="#00A885" stroke="black"/>
</svg>
